# xmcd
#
# Track frame offsets:
#	150
#	10745
#	26375
#	39127
#	51497
#	66987
#	82875
#	101340
#	115100
#	128550
#
# Disc length: 1871 seconds
#
# Revision: 0
# Processed by: cddbd v1.5.1PL0 Copyright (c) Steve Scherf et al.
# Submitted via: dBpowerAMP V4.0
#
DISCID=6e074d0a
DTITLE=George Jones - One Woman Man
DYEAR=1989
DGENRE=Country
TTITLE0=I'm A One Woman Man
TTITLE1=My Baby's Gone
TTITLE2=Don't You Ever Get Tired ( Of Hurting Me )
TTITLE3=Burning Bridges
TTITLE4=The King Is Gone ( So Are You )
TTITLE5=Radio Lover
TTITLE6=A Place In The Country
TTITLE7=Just Out Of Reach
TTITLE8=Writing On The Wall
TTITLE9=Pretty Little Lady From Beaumont Texas
EXTD=
EXTT0=
EXTT1=
EXTT2=
EXTT3=
EXTT4=
EXTT5=
EXTT6=
EXTT7=
EXTT8=
EXTT9=
PLAYORDER=
